<!DOCTYPE svg PUBLIC "-//W3C//DTD SVG 1.1//EN" "http://www.w3.org/Graphics/SVG/1.1/DTD/svg11.dtd">
<!-- Uploaded to: SVG Repo, www.svgrepo.com, Transformed by: SVG Repo Mixer Tools -->
<svg height="64px" width="64px" version="1.1" id="Layer_1" xmlns="http://www.w3.org/2000/svg" xmlns:xlink="http://www.w3.org/1999/xlink" viewBox="0 0 511.999 511.999" xml:space="preserve" fill="#000000">
<g id="SVGRepo_bgCarrier" stroke-width="0"/>
<g id="SVGRepo_tracerCarrier" stroke-linecap="round" stroke-linejoin="round"/>
<g id="SVGRepo_iconCarrier"> <g> <path style="fill:#D5B4E8;" d="M418.657,140.202h-18.909c-4.328,0-7.837-3.508-7.837-7.837s3.509-7.837,7.837-7.837h18.909 c4.328,0,7.837,3.508,7.837,7.837S422.985,140.202,418.657,140.202z"/> <path style="fill:#D5B4E8;" d="M417.612,170.156h-18.909c-4.328,0-7.837-3.508-7.837-7.837c0-4.329,3.509-7.837,7.837-7.837h18.909 c4.328,0,7.837,3.508,7.837,7.837C425.448,166.648,421.94,170.156,417.612,170.156z"/> <path style="fill:#D5B4E8;" d="M411.554,200.336h-18.909c-4.328,0-7.837-3.508-7.837-7.837c0-4.329,3.509-7.837,7.837-7.837h18.909 c4.328,0,7.837,3.508,7.837,7.837C419.391,196.828,415.882,200.336,411.554,200.336z"/> </g> <path style="fill:#FF3F62;" d="M348.697,283.072c-12.375,13.285-36.518,11.999-52.405-1.743 c-15.925-13.767-19.099-33.452-8.41-44.958c5.612-5.622,36.473-33.69,60.093-65.84c24.944-31.123,42.646-66.329,52.526-62.505 c9.639,3.26,9.668,47.889-4.936,89.008C382.654,238.82,355.109,277.097,348.697,283.072z"/> <path style="fill:#FF0C38;" d="M319.591,224.403c12.385-4.089,76.966-34.336,78.57-35.205c-0.808,2.618-1.673,5.234-2.597,7.836 c-12.911,41.787-40.455,80.063-46.868,86.037c-12.375,13.285-36.518,11.999-52.405-1.743c-5.997-5.184-10.184-11.208-12.505-17.317 C284.395,261.045,285.448,235.676,319.591,224.403z"/> <g> <path style="fill:#D5B4E8;" d="M484.987,215.969l-20.201-4.18c-4.238-0.878-6.963-5.024-6.087-9.262 c0.877-4.24,5.023-6.963,9.262-6.087l20.201,4.18c4.238,0.878,6.963,5.024,6.087,9.262 C493.483,213.586,490.58,217.176,484.987,215.969z"/> <path style="fill:#D5B4E8;" d="M470.706,242.253l-20.201-4.18c-4.238-0.878-6.963-5.024-6.087-9.262 c0.877-4.24,5.023-6.962,9.262-6.087l20.201,4.18c4.238,0.878,6.963,5.024,6.087,9.262 C479.202,239.869,476.474,243.037,470.706,242.253z"/> <path style="fill:#D5B4E8;" d="M451.919,265.975l-20.201-4.18c-4.238-0.878-6.963-5.024-6.087-9.262 c0.877-4.239,5.023-6.958,9.262-6.087l20.201,4.18c4.238,0.878,6.963,5.024,6.087,9.262 C460.415,263.592,458.014,267.331,451.919,265.975z"/> </g> <path style="fill:#FF728B;" d="M360.279,318.101c-16.704,7.115-38.243-3.867-47.18-22.876c-8.962-19.047-3.866-38.326,10.573-44.499 c7.411-2.857,47.012-15.972,81.654-35.76c35.435-18.31,65.91-43.292,73.384-35.785c7.484,6.894-10.615,47.688-40.66,79.332 C409.281,291.454,368.565,315.245,360.279,318.101z"/> <path style="fill:#FF3F62;" d="M449.206,245.7c-3.495,4.363-7.22,8.667-11.156,12.813c-28.769,32.941-69.486,56.733-77.772,59.587 c-16.704,7.115-38.243-3.866-47.18-22.876c-8.962-19.047-3.866-38.326,10.573-44.499C325.081,250.182,442.428,246.486,449.206,245.7 z"/> <g> <path style="fill:#D5B4E8;" d="M483.339,317.349L468.71,296.93c-2.521-3.518-1.713-8.415,1.807-10.935 c3.518-2.522,8.415-1.713,10.935,1.807l14.629,20.418c2.521,3.518,1.713,8.415-1.807,10.935 C492.89,320.146,487.707,322.652,483.339,317.349z"/> <path style="fill:#D5B4E8;" d="M458.958,335.055l-14.629-20.418c-2.521-3.518-1.713-8.415,1.807-10.935 c3.518-2.522,8.415-1.713,10.935,1.807l14.629,20.418c2.521,3.518,1.713,8.415-1.807,10.935 C468.51,337.853,463.674,340.712,458.958,335.055z"/> <path style="fill:#D5B4E8;" d="M429.721,345.264l-14.629-20.418c-2.521-3.518-1.713-8.415,1.807-10.935 c3.518-2.522,8.415-1.713,10.935,1.807l14.629,20.418c2.521,3.518,1.713,8.415-1.807,10.935 C439.273,348.061,434.156,350.923,429.721,345.264z"/> <path style="fill:#D5B4E8;" d="M400.691,355.474l-14.629-20.418c-2.521-3.518-1.713-8.415,1.807-10.935 c3.518-2.522,8.414-1.713,10.935,1.807l14.629,20.418c2.521,3.518,1.713,8.415-1.807,10.935 C410.243,358.271,404.898,360.85,400.691,355.474z"/> </g> <path style="fill:#FFA5B5;" d="M347.043,349.636c-18.153-0.278-33.382-19.056-33.835-40.056 c-0.46-21.045,12.023-36.596,27.724-36.377c7.933,0.397,49.449,4.484,89.139,0.46c39.816-2.352,77.807-12.815,81.592-2.919 c4.042,9.338-29.057,39.276-69.359,56C402.644,345.172,355.775,350.39,347.043,349.636z"/> <g> <path style="fill:#D5B4E8;" d="M112.254,140.202h-18.91c-4.328,0-7.837-3.508-7.837-7.837s3.509-7.837,7.837-7.837h18.91 c4.328,0,7.837,3.508,7.837,7.837S116.582,140.202,112.254,140.202z"/> <path style="fill:#D5B4E8;" d="M113.299,170.156h-18.91c-4.328,0-7.837-3.508-7.837-7.837c0-4.329,3.509-7.837,7.837-7.837h18.91 c4.328,0,7.837,3.508,7.837,7.837C121.136,166.648,117.627,170.156,113.299,170.156z"/> <path style="fill:#D5B4E8;" d="M119.357,200.336h-18.911c-4.328,0-7.837-3.508-7.837-7.837c0-4.329,3.509-7.837,7.837-7.837h18.91 c4.328,0,7.837,3.508,7.837,7.837C127.193,196.828,123.685,200.336,119.357,200.336z"/> </g> <path style="fill:#FF3F62;" d="M163.304,283.072c12.375,13.285,36.518,11.999,52.405-1.743c15.925-13.767,19.099-33.452,8.41-44.958 c-5.612-5.622-36.473-33.69-60.093-65.84c-24.944-31.123-42.646-66.329-52.526-62.505c-9.639,3.26-9.668,47.889,4.936,89.008 C129.347,238.82,156.892,277.097,163.304,283.072z"/> <path style="fill:#FF0C38;" d="M192.41,224.403c-12.385-4.089-76.966-34.336-78.57-35.205c0.808,2.618,1.673,5.234,2.597,7.836 c12.911,41.787,40.455,80.063,46.868,86.037c12.375,13.285,36.518,11.999,52.405-1.743c5.997-5.184,10.184-11.208,12.505-17.317 C227.606,261.045,226.553,235.676,192.41,224.403z"/> <g> <path style="fill:#D5B4E8;" d="M17.752,209.883c-0.831-4.249,1.848-8.384,6.087-9.262l20.201-4.18 c4.238-0.869,8.385,1.848,9.262,6.087c0.877,4.239-1.848,8.384-6.087,9.262l-20.201,4.18 C26.479,216.08,19.331,217.96,17.752,209.883z"/> <path style="fill:#D5B4E8;" d="M32.033,236.166c-0.921-4.23,1.848-8.384,6.087-9.262l20.201-4.18 c4.24-0.876,8.385,1.848,9.262,6.087c0.877,4.239-1.848,8.384-6.087,9.262l-20.201,4.18 C40.759,242.364,33.698,243.821,32.033,236.166z"/> <path style="fill:#D5B4E8;" d="M50.82,259.889c-0.739-4.265,1.848-8.384,6.087-9.262l20.201-4.18 c4.238-0.872,8.385,1.849,9.262,6.087c0.877,4.239-1.848,8.384-6.087,9.262l-20.201,4.18 C59.547,266.086,52.245,268.115,50.82,259.889z"/> </g> <path style="fill:#FF728B;" d="M151.722,318.101c16.704,7.115,38.243-3.867,47.18-22.876c8.962-19.047,3.866-38.326-10.573-44.499 c-7.411-2.857-47.012-15.972-81.654-35.76c-35.435-18.31-65.91-43.292-73.384-35.785c-7.484,6.894,10.615,47.688,40.66,79.332 C102.72,291.454,143.437,315.245,151.722,318.101z"/> <path style="fill:#FF3F62;" d="M62.795,245.7c3.495,4.363,7.22,8.667,11.156,12.813c28.769,32.941,69.486,56.733,77.772,59.587 c16.704,7.115,38.243-3.866,47.18-22.876c8.962-19.047,3.866-38.326-10.573-44.499C186.92,250.182,69.573,246.486,62.795,245.7z"/> <g> <path style="fill:#D5B4E8;" d="M17.727,319.155c-3.656-2.317-4.327-7.417-1.807-10.935l14.629-20.418 c2.52-3.517,7.416-4.328,10.935-1.807c3.518,2.52,4.327,7.417,1.807,10.935l-14.629,20.418 C27.132,319.484,23.249,322.653,17.727,319.155z"/> <path style="fill:#D5B4E8;" d="M42.108,336.861c-3.691-2.261-4.327-7.417-1.807-10.935l14.629-20.418 c2.521-3.517,7.416-4.328,10.935-1.807c3.518,2.52,4.327,7.417,1.807,10.935l-14.629,20.418 C51.513,337.191,47.543,340.192,42.108,336.861z"/> <path style="fill:#D5B4E8;" d="M71.345,347.071c-3.638-2.345-4.327-7.417-1.807-10.935l14.629-20.418 c2.52-3.517,7.416-4.328,10.935-1.807c3.518,2.52,4.327,7.417,1.807,10.935L82.28,345.264 C80.749,347.4,77.323,350.923,71.345,347.071z"/> <path style="fill:#D5B4E8;" d="M100.375,357.279c-3.658-2.312-4.327-7.417-1.807-10.935l14.629-20.418 c2.521-3.517,7.416-4.327,10.935-1.807c3.518,2.52,4.327,7.417,1.807,10.935l-14.629,20.418 C109.781,357.609,104.784,360.066,100.375,357.279z"/> </g> <path style="fill:#FFA5B5;" d="M164.957,349.636c18.153-0.278,33.382-19.056,33.835-40.056c0.46-21.045-12.023-36.596-27.724-36.377 c-7.933,0.397-49.449,4.484-89.139,0.46c-39.817-2.353-77.809-12.815-81.594-2.919c-4.042,9.338,29.057,39.276,69.359,56 C109.357,345.172,156.226,350.39,164.957,349.636z"/> <path style="fill:#FFBCAB;" d="M383.684,324.401c0,70.518-57.166,79.858-127.683,79.858s-127.683-9.341-127.683-79.858 S185.482,187.693,256,187.693S383.684,253.884,383.684,324.401z"/> <g> <path style="fill:#FF9478;" d="M153.952,324.401c0-66.191,50.367-128.566,114.866-135.972c-4.216-0.484-8.491-0.737-12.818-0.737 c-70.518,0-127.683,66.189-127.683,136.707s57.166,79.858,127.683,79.858c4.327,0,8.602-0.036,12.818-0.118 C204.319,402.883,153.952,390.593,153.952,324.401z"/> <path style="fill:#FF9478;" d="M317.543,367.601H194.822c-8.742,0-16.902-5.084-20.79-12.955c-1.917-3.88-0.327-8.58,3.554-10.497 c3.88-1.919,8.58-0.326,10.497,3.554c1.269,2.566,3.914,4.225,6.74,4.225h122.721c2.704,0,5.217-1.487,6.558-3.881 c2.115-3.775,6.89-5.123,10.666-3.008s5.123,6.891,3.007,10.667C333.666,363.043,325.914,367.601,317.543,367.601z"/> <path style="fill:#FF9478;" d="M288.463,234.295c-10.438-4.923-21.36-7.418-32.463-7.418c-4.328,0-7.837-3.508-7.837-7.837 c0-4.329,3.509-7.837,7.837-7.837c13.432,0,26.603,2.999,39.148,8.913c3.915,1.846,5.598,6.519,3.746,10.43 C296.404,235.811,289.544,234.804,288.463,234.295z"/> <path style="fill:#FF9478;" d="M311.609,250.195c-1.675-1.568-3.406-3.081-5.148-4.498c-3.357-2.73-3.866-7.666-1.136-11.025 c2.729-3.359,7.666-3.867,11.025-1.137c2.025,1.647,4.034,3.403,5.975,5.22c3.159,2.959,3.721,8.349,0.362,11.077 C317.649,253.922,313.121,251.611,311.609,250.195z"/> </g> <g> <circle style="fill:#3E3D42;" cx="176.588" cy="293.699" r="14.437"/> <circle style="fill:#3E3D42;" cx="337.21" cy="293.699" r="14.437"/> </g> </g>
</svg>